<?xml version="1.0" standalone="no"?>
<!DOCTYPE svg PUBLIC "-//W3C//DTD SVG 20010904//EN"
 "http://www.w3.org/TR/2001/REC-SVG-20010904/DTD/svg10.dtd">
<svg version="1.0" xmlns="http://www.w3.org/2000/svg"
 width="512.000000pt" height="512.000000pt" viewBox="0 0 512.000000 512.000000"
 preserveAspectRatio="xMidYMid meet">
<metadata>
Created by potrace 1.14, written by Peter Selinger 2001-2017
</metadata>
<g transform="translate(0.000000,512.000000) scale(0.100000,-0.100000)"
fill="#000000" stroke="none">
<path d="M2345 4790 c-535 -57 -989 -273 -1365 -650 -346 -345 -548 -738 -632
-1230 -18 -103 -22 -165 -22 -350 0 -185 4 -247 22 -350 84 -492 286 -885 632
-1230 345 -346 738 -548 1230 -632 180 -31 520 -31 700 0 492 84 885 286 1230
632 346 345 548 738 632 1230 18 103 22 165 22 350 0 185 -4 247 -22 350 -84
492 -286 885 -632 1230 -344 345 -744 550 -1225 631 -136 23 -441 33 -570 19z
m540 -180 c200 -33 373 -85 550 -165 l74 -34 -37 -68 c-264 -484 -308 -913
-124 -1228 37 -62 117 -147 259 -273 86 -76 136 -147 166 -237 18 -50 29 -132
47 -335 6 -63 17 -137 25 -163 35 -116 124 -234 231 -308 52 -36 176 -97 269
-134 39 -15 71 -29 73 -30 2 -2 -22 -48 -53 -103 -168 -293 -458 -589 -744
-758 -326 -193 -676 -288 -1061 -288 -566 0 -1065 207 -1466 608 -401 401
-608 900 -608 1466 0 128 6 219 18 295 16 102 62 304 71 313 2 2 37 -29 77
-70 83 -81 107 -126 133 -241 9 -43 23 -94 31 -114 21 -49 87 -118 155 -159
113 -68 119 -101 68 -349 -24 -112 -32 -177 -32 -255 -1 -214 54 -302 338
-540 355 -298 722 -480 967 -480 147 0 248 98 248 240 0 56 -10 85 -83 250
-97 221 -111 274 -111 435 -1 124 3 151 27 235 31 109 34 173 11 251 -32 109
-68 155 -285 369 -225 222 -259 267 -259 349 0 79 27 124 276 453 140 185 180
247 229 352 58 122 77 199 76 316 0 112 -24 215 -75 326 -20 42 -36 80 -36 85
0 24 387 17 555 -11z m-688 -105 c60 -115 87 -220 80 -320 -9 -154 -71 -279
-259 -527 -265 -350 -299 -406 -320 -517 -9 -49 -8 -71 5 -126 31 -124 88
-196 336 -425 135 -125 193 -202 210 -280 9 -42 7 -63 -14 -147 -31 -122 -48
-261 -40 -333 17 -153 41 -232 137 -458 61 -143 69 -168 61 -195 -14 -50 -51
-62 -140 -49 -192 30 -434 153 -702 357 -127 96 -289 242 -323 291 -67 97 -74
200 -28 423 39 190 44 246 31 313 -17 80 -63 144 -134 187 -122 74 -128 82
-162 231 -26 112 -66 183 -154 270 -42 42 -93 90 -113 106 l-38 29 43 95 c169
370 483 714 846 927 179 106 524 236 606 230 27 -2 35 -11 72 -82z m1628 -299
c44 -33 134 -114 201 -180 194 -194 336 -401 441 -642 168 -391 213 -821 128
-1241 -24 -119 -88 -330 -104 -346 -11 -11 -172 52 -261 101 -36 20 -89 58
-119 86 -94 90 -117 154 -136 385 -17 208 -31 267 -87 381 -44 88 -91 140
-295 330 -88 82 -122 133 -161 243 -24 65 -26 86 -26 222 -1 89 5 174 13 210
34 153 116 366 198 512 l35 63 46 -32 c26 -17 83 -59 127 -92z"/>
</g>
</svg>
